# xmcd
#
# Track frame offsets: 
#        300
#        21937
#        52486
#        88725
#        105672
#        162851
#        211809
#        289677
#        308950
#
# Disc length: 4200 seconds
#
# Revision: 0
# Processed by: cddbd v1.5.2PL0 Copyright (c) Steve Scherf et al.
# Submitted via: ExactAudioCopy v1.0b1
#
DISCID=80106409
DTITLE=Albert Collins - Live At The El Mocambo
DYEAR=1973
DGENRE=Texas Blues
TTITLE0=Intro
TTITLE1=All About My Girl
TTITLE2=I've Got A Mind To Travel
TTITLE3=Things That I Used To Do
TTITLE4=Frosty
TTITLE5=Wah Heat
TTITLE6=Can't You See What You're Doing To Me
TTITLE7=Cold Tremor
TTITLE8=Johnny B. Cool
EXTD=
EXTT0=
EXTT1=
EXTT2=
EXTT3=
EXTT4=
EXTT5=
EXTT6=
EXTT7=
EXTT8=
PLAYORDER=
